<svg width="24" height="25" viewBox="0 0 24 25" fill="none" xmlns="http://www.w3.org/2000/svg">
<g id="SVG">
<path id="Vector" fill-rule="evenodd" clip-rule="evenodd" d="M8.084 3.54672C10.4256 3.2865 12.7872 3.26037 15.134 3.46872L15.916 3.54672L16.195 3.57772C17.284 3.69872 18.08 3.94972 18.801 4.40572C19.5194 4.8571 20.0961 5.50172 20.465 6.26572C20.801 6.95572 20.965 7.68872 20.995 8.62672L21 8.94772V12.9227C21 13.9497 20.6482 14.9457 20.0032 15.7448C19.3582 16.544 18.4589 17.098 17.455 17.3147L17.248 17.3547L15.159 17.7007L12.299 20.6927L12.152 20.8277C11.166 21.6167 9.753 21.4507 8.947 20.5037C8.415 19.8787 8.331 19.1637 8.437 18.2137L8.466 17.9897L8.504 17.7357L8.537 17.5487L7.205 17.3597C6.61786 17.277 6.05006 17.0908 5.528 16.8097L5.275 16.6637L5.032 16.5037C4.40354 16.0586 3.89201 15.4682 3.541 14.7827C3.22809 14.1697 3.04688 13.498 3.009 12.8107L3 12.5107V8.94772C3 7.85172 3.162 7.03272 3.535 6.26472C3.91 5.49472 4.475 4.86472 5.199 4.40572C5.848 3.99572 6.558 3.75072 7.487 3.61772L7.805 3.57772L8.085 3.54672H8.084ZM15.75 5.03772C13.5074 4.78839 11.2456 4.76327 8.998 4.96272L8.25 5.03772L7.97 5.06872C7.055 5.17072 6.489 5.36572 6 5.67472C5.51782 5.97679 5.13093 6.4091 4.884 6.92172C4.656 7.38972 4.527 7.91072 4.504 8.68172L4.5 8.94772V12.5107C4.5 13.0877 4.634 13.6267 4.875 14.0977C5.117 14.5687 5.467 14.9717 5.899 15.2777C6.269 15.5407 6.7 15.7307 7.175 15.8317L7.417 15.8747L9.397 16.1577C9.736 16.2057 9.854 16.2537 9.972 16.3327C10.091 16.4107 10.234 16.5197 10.242 16.7187L10.24 16.7427L10.227 16.8227L10.063 17.5637L9.999 17.8967C9.888 18.5267 9.832 19.2287 10.089 19.5307C10.352 19.8397 10.789 19.9207 11.126 19.7177L11.215 19.6557L14.213 16.5207L14.343 16.4197L14.435 16.3567L14.512 16.3167L14.592 16.2867L14.627 16.2767L14.714 16.2567L17 15.8747C17.6679 15.7633 18.2783 15.4287 18.7314 14.9256C19.1846 14.4225 19.4538 13.7806 19.495 13.1047L19.5 12.9227V8.94772C19.5 8.02672 19.37 7.44172 19.116 6.92172C18.8691 6.4091 18.4822 5.97679 18 5.67472C17.56 5.39672 17.057 5.21072 16.294 5.10272L16.029 5.06872L15.75 5.03772ZM15.2 11.3317L15.293 11.3367C15.691 11.3807 16 11.6967 16 12.0827C16 12.4627 15.699 12.7757 15.309 12.8257L15.2 12.8327H8.8L8.707 12.8277C8.309 12.7837 8 12.4677 8 12.0827C8 11.7027 8.301 11.3887 8.691 11.3387L8.8 11.3317H15.2ZM15.2 7.83172L15.293 7.83572C15.691 7.87972 16 8.19572 16 8.58172C16 8.96172 15.699 9.27472 15.309 9.32472L15.2 9.33172H8.8L8.707 9.32672C8.309 9.28272 8 8.96672 8 8.58172C8 8.20172 8.301 7.88772 8.691 7.83772L8.8 7.83072L15.2 7.83172Z" fill="#A8B3CF"/>
</g>
</svg>
