<svg width="25" height="25" viewBox="0 0 25 25" fill="none" xmlns="http://www.w3.org/2000/svg">
<g id="SVG">
<path id="Vector" fill-rule="evenodd" clip-rule="evenodd" d="M11.3108 5.30282C10.8386 5.84516 10.5898 6.54639 10.6145 7.26502C10.6392 7.98364 10.9355 8.66615 11.4438 9.17482L11.7178 9.45082L11.5068 9.46282C11.4039 9.47002 11.3013 9.47902 11.1988 9.48982C7.93077 9.83382 5.47577 12.4908 3.67077 17.6108L3.51477 18.0628L3.41777 18.3578C2.79777 20.2558 5.63777 21.1908 6.26577 19.2948L6.36077 19.0048L6.41577 18.8568L6.50877 18.6238C7.39277 16.5468 9.33677 15.3108 11.5768 15.0418L11.6738 15.0318L11.4438 15.2628C10.9119 15.7953 10.6131 16.5172 10.6131 17.2698C10.6131 18.0225 10.9119 18.7443 11.4438 19.2768C11.707 19.5402 12.0196 19.7491 12.3636 19.8916C12.7077 20.0342 13.0764 20.1075 13.4488 20.1075C13.8211 20.1075 14.1899 20.0342 14.5339 19.8916C14.8779 19.7491 15.1905 19.5402 15.4538 19.2768L20.4988 14.2278C21.0388 13.6878 21.3308 12.9648 21.3298 12.2158C21.3302 11.8433 21.257 11.4744 21.1146 11.1301C20.9722 10.7859 20.7633 10.4732 20.4998 10.2098L15.4538 5.15982C15.1905 4.89631 14.8778 4.68727 14.5337 4.54465C14.1896 4.40202 13.8208 4.32861 13.4483 4.32861C13.0758 4.32861 12.7069 4.40202 12.3628 4.54465C12.0187 4.68727 11.7061 4.89631 11.4428 5.15982L11.3098 5.30182L11.3108 5.30282ZM5.00577 18.3468L4.93777 18.5338L5.10177 18.0608C6.72877 13.4688 8.81277 11.2488 11.3558 10.9808C11.6108 10.9548 11.8658 10.9408 12.1228 10.9408H15.3228L14.0798 9.69582L12.5038 8.11382C12.272 7.8594 12.1472 7.52553 12.1551 7.18149C12.163 6.83745 12.303 6.50966 12.5461 6.26613C12.7893 6.0226 13.1169 5.88203 13.4609 5.87359C13.8049 5.86516 14.139 5.9895 14.3938 6.22082L19.4388 11.2688C19.7008 11.5308 19.8318 11.8748 19.8308 12.2188C19.8308 12.5608 19.7008 12.9048 19.4388 13.1668L14.3948 18.2148C14.2705 18.339 14.1231 18.4375 13.9608 18.5046C13.7985 18.5718 13.6246 18.6064 13.4489 18.6063C13.2733 18.6063 13.0994 18.5716 12.9371 18.5044C12.7748 18.4371 12.6274 18.3385 12.5033 18.2143C12.3791 18.0901 12.2806 17.9426 12.2134 17.7803C12.1463 17.618 12.1117 17.4441 12.1118 17.2685C12.1118 17.0928 12.1465 16.9189 12.2137 16.7567C12.281 16.5944 12.3795 16.447 12.5038 16.3228L15.3258 13.4948H12.3338C9.06177 13.4948 6.15377 15.3168 5.00577 18.3448V18.3468Z" fill="#A8B3CF"/>
</g>
</svg>
