<svg width="25" height="25" viewBox="0 0 25 25" fill="none" xmlns="http://www.w3.org/2000/svg">
<g id="SVG">
<path id="Vector" fill-rule="evenodd" clip-rule="evenodd" d="M10.1259 4.54584L4.14091 12.3968C3.68491 13.0338 3.55791 13.7988 3.76991 14.5048L3.82191 14.6598C4.03481 15.225 4.45424 15.6882 4.99549 15.9561C5.53675 16.2239 6.15948 16.2764 6.73791 16.1028L9.61391 15.2388L10.1919 19.2808C10.273 19.849 10.5564 20.3687 10.9899 20.7448C11.4234 21.1208 11.978 21.3278 12.5519 21.3278H12.7859L12.9469 21.3218C13.4919 21.2852 14.0079 21.0625 14.4083 20.6909C14.8088 20.3194 15.0695 19.8216 15.1469 19.2808L15.7229 15.2388L18.5999 16.1028C19.076 16.2454 19.5847 16.2357 20.0549 16.075C20.5252 15.9143 20.9334 15.6106 21.2226 15.2065C21.5118 14.8024 21.6675 14.318 21.6679 13.821C21.6684 13.3241 21.5135 12.8394 21.2249 12.4348L15.2999 4.65984C15.0035 4.25735 14.6187 3.92822 14.1751 3.69779C13.7315 3.46735 13.2409 3.34175 12.7412 3.33064C12.2414 3.31953 11.7458 3.42322 11.2924 3.63372C10.839 3.84422 10.4399 4.15692 10.1259 4.54584ZM13.6959 5.15884C13.8559 5.27284 13.9939 5.41184 14.1069 5.56984L20.0039 13.3058C20.1108 13.4558 20.1682 13.6355 20.168 13.8197C20.1678 14.0039 20.1101 14.1834 20.0029 14.3332C19.8958 14.483 19.7445 14.5956 19.5702 14.6552C19.3959 14.7149 19.2074 14.7186 19.0309 14.6658L15.4679 13.5968C15.346 13.5603 15.2177 13.5505 15.0917 13.5681C14.9657 13.5857 14.845 13.6303 14.7378 13.6989C14.6306 13.7674 14.5395 13.8583 14.4706 13.9653C14.4018 14.0723 14.3569 14.1929 14.3389 14.3188L13.6609 19.0688C13.6308 19.2795 13.5258 19.4722 13.365 19.6116C13.2043 19.751 12.9987 19.8278 12.7859 19.8278H12.5519C12.339 19.8278 12.1332 19.7509 11.9725 19.6112C11.8117 19.4716 11.7068 19.2787 11.6769 19.0678L10.9979 14.3178C10.9797 14.1922 10.9346 14.0719 10.8657 13.9652C10.7968 13.8586 10.7057 13.768 10.5987 13.6997C10.4917 13.6314 10.3712 13.5869 10.2454 13.5693C10.1196 13.5517 9.99157 13.5615 9.86991 13.5978L6.30691 14.6658C6.13043 14.7186 5.94188 14.7149 5.76761 14.6552C5.59334 14.5956 5.44205 14.483 5.33488 14.3332C5.22771 14.1834 5.17 14.0039 5.16983 13.8197C5.16965 13.6355 5.22702 13.4558 5.33391 13.3058L11.2299 5.56984C11.5024 5.1886 11.9152 4.93123 12.3775 4.85434C12.8398 4.77745 13.3137 4.88734 13.6949 5.15984L13.6959 5.15884Z" fill="#A8B3CF"/>
</g>
</svg>
