<svg width="20" height="20" viewBox="0 0 20 20" fill="none" xmlns="http://www.w3.org/2000/svg">
<g id="SVG">
<path id="Vector" fill-rule="evenodd" clip-rule="evenodd" d="M15.3009 9.38253C15.4492 9.40527 15.5843 9.48056 15.6817 9.59468C15.779 9.70879 15.8321 9.85411 15.8312 10.0041C15.8303 10.1541 15.7754 10.2988 15.6767 10.4117C15.578 10.5246 15.4419 10.5983 15.2934 10.6192L15.2084 10.625H10.6251V15.2084C10.6241 15.3654 10.564 15.5163 10.4568 15.6311C10.3496 15.7458 10.2031 15.816 10.0465 15.8277C9.88986 15.8393 9.7346 15.7916 9.61158 15.694C9.48856 15.5964 9.4068 15.456 9.38256 15.3009L9.37506 15.2092V10.625H4.79173L4.69923 10.6175C4.55096 10.5948 4.41582 10.5195 4.31847 10.4054C4.22111 10.2913 4.16805 10.146 4.16896 9.99596C4.16987 9.84597 4.22469 9.7013 4.32342 9.58838C4.42215 9.47545 4.5582 9.4018 4.70673 9.38087L4.79173 9.37503H9.37506V4.7917C9.37606 4.63466 9.43614 4.48375 9.54335 4.36899C9.65056 4.25423 9.79704 4.18404 9.95365 4.17238C10.1103 4.16072 10.2655 4.20845 10.3885 4.30607C10.5116 4.40368 10.5933 4.54404 10.6176 4.6992L10.6251 4.79087V9.37503H15.2084L15.3009 9.38253Z" fill="#A8B3CF"/>
</g>
</svg>
