<svg width="25" height="24" viewBox="0 0 25 24" fill="none" xmlns="http://www.w3.org/2000/svg">
<g id="SVG">
<path id="Vector" fill-rule="evenodd" clip-rule="evenodd" d="M12.74 3C13.0892 2.99989 13.4338 3.07886 13.7481 3.23101C14.0624 3.38315 14.3382 3.6045 14.5547 3.87845C14.7712 4.1524 14.9228 4.47184 14.9982 4.81278C15.0736 5.15371 15.0708 5.5073 14.99 5.847C16.1254 6.27754 17.1146 7.02269 17.8418 7.99517C18.569 8.96764 19.004 10.1272 19.096 11.338L19.111 11.602L19.115 11.812V14.038L19.187 14.06C19.99 14.34 20.592 15.048 20.717 15.912L20.735 16.087L20.74 16.245C20.74 17.469 19.79 18.471 18.586 18.552L18.427 18.558L16.381 18.557L16.368 18.59C16.0938 19.2385 15.6509 19.8016 15.0853 20.2209C14.5197 20.6401 13.8521 20.9002 13.152 20.974L12.942 20.99L12.74 20.995C12.0015 20.995 11.2779 20.7867 10.6524 20.394C10.0269 20.0013 9.52491 19.4402 9.20399 18.775L9.12099 18.592L9.10599 18.557H7.05299C5.88199 18.557 4.91399 17.687 4.76099 16.559L4.74499 16.403L4.73999 16.245C4.73999 15.342 5.25999 14.552 6.06499 14.169L6.22999 14.098L6.36499 14.05V11.812C6.36502 10.5162 6.75977 9.25123 7.49669 8.18543C8.23361 7.11962 9.27772 6.30359 10.49 5.846C10.4094 5.50637 10.4067 5.15289 10.4822 4.81208C10.5577 4.47127 10.7093 4.15197 10.9258 3.87814C11.1423 3.60431 11.418 3.38306 11.7322 3.23097C12.0464 3.07889 12.3909 2.99992 12.74 3ZM12.74 6.938C12.303 6.938 11.88 6.995 11.478 7.103L11.33 7.145C10.3649 7.4367 9.51396 8.02039 8.89432 8.81571C8.27468 9.61103 7.91682 10.5789 7.86999 11.586L7.86499 11.812V14.62C7.86499 15.034 7.55499 15.376 7.15499 15.426L6.95799 15.438C6.7616 15.4621 6.58074 15.557 6.44931 15.7049C6.31788 15.8528 6.2449 16.0436 6.24404 16.2414C6.24318 16.4393 6.3145 16.6307 6.44465 16.7797C6.57479 16.9287 6.75482 17.0252 6.95099 17.051L7.05199 17.058H10.302L10.307 17.201C10.342 17.7938 10.5921 18.3534 11.0104 18.7749C11.4287 19.1963 11.9865 19.4506 12.579 19.49L12.74 19.495L12.9 19.49C13.4886 19.4512 14.0433 19.2003 14.461 18.7839C14.8788 18.3674 15.1314 17.8135 15.172 17.225L15.177 17.057H18.427L18.529 17.051C18.7245 17.0252 18.9039 16.9292 19.0339 16.7809C19.1639 16.6326 19.2355 16.4422 19.2355 16.245C19.2355 16.0478 19.1639 15.8574 19.0339 15.7091C18.9039 15.5608 18.7245 15.4648 18.529 15.439L18.333 15.427C18.1528 15.4059 17.9848 15.3252 17.8558 15.1976C17.7267 15.07 17.6441 14.903 17.621 14.723L17.615 14.62V11.813L17.612 11.63C17.5737 10.6152 17.2197 9.63758 16.5993 8.83359C15.9789 8.02959 15.123 7.43928 14.151 7.145L14.008 7.104C13.5945 6.99296 13.1682 6.93681 12.74 6.937V6.938ZM12.74 4.5C12.5881 4.50024 12.4393 4.54308 12.3105 4.62366C12.1818 4.70424 12.0782 4.81933 12.0115 4.95584C11.9449 5.09235 11.9179 5.24482 11.9336 5.39591C11.9493 5.547 12.0071 5.69066 12.1003 5.81056C12.1936 5.93046 12.3186 6.0218 12.4612 6.07418C12.6038 6.12657 12.7582 6.13791 12.9069 6.10692C13.0557 6.07592 13.1927 6.00383 13.3025 5.89884C13.4123 5.79386 13.4904 5.66018 13.528 5.513L13.546 5.414L13.553 5.313C13.5531 5.2062 13.5322 5.10042 13.4914 5.00172C13.4506 4.90303 13.3907 4.81335 13.3152 4.73783C13.2396 4.66231 13.15 4.60243 13.0513 4.56162C12.9526 4.52081 12.8468 4.49987 12.74 4.5Z" fill="#A8B3CF"/>
</g>
</svg>
