<svg width="20" height="20" viewBox="0 0 20 20" fill="none" xmlns="http://www.w3.org/2000/svg">
<g id="SVG">
<path id="Vector" fill-rule="evenodd" clip-rule="evenodd" d="M13.2284 2.5H6.77178C6.05951 2.50016 5.37413 2.77199 4.85538 3.26007C4.33664 3.74816 4.02361 4.41573 3.98011 5.12667L3.33678 15.7683C3.31344 16.1508 3.42511 16.5308 3.65344 16.84L3.73761 16.9442C4.29261 17.5808 5.25261 17.6942 5.94344 17.1833L10.0001 14.1858L14.0568 17.1833C14.3073 17.3686 14.6055 17.4785 14.9163 17.5001C15.2271 17.5217 15.5377 17.4542 15.8114 17.3054C16.0852 17.1566 16.3108 16.9328 16.4617 16.6602C16.6126 16.3876 16.6826 16.0776 16.6634 15.7667L16.0209 5.1275C15.9774 4.41634 15.6643 3.74856 15.1454 3.26032C14.6265 2.77208 13.9409 2.50016 13.2284 2.5ZM13.2284 3.75C14.0459 3.75 14.7234 4.38667 14.7734 5.20333L15.4159 15.8433C15.4207 15.917 15.4042 15.9904 15.3686 16.055C15.3329 16.1196 15.2795 16.1726 15.2146 16.2079C15.1498 16.2431 15.0762 16.259 15.0026 16.2538C14.929 16.2486 14.8585 16.2224 14.7993 16.1783L10.4601 12.9717C10.3269 12.8733 10.1657 12.8202 10.0001 12.8202C9.83452 12.8202 9.6733 12.8733 9.54011 12.9717L5.20011 16.1783C5.14091 16.2224 5.07034 16.2486 4.99674 16.2538C4.92314 16.259 4.84958 16.2431 4.78474 16.2079C4.7199 16.1726 4.6665 16.1196 4.63083 16.055C4.59516 15.9904 4.57872 15.917 4.58344 15.8433L5.22761 5.20333C5.27761 4.38667 5.95428 3.75 6.77178 3.75H13.2284Z" fill="#A8B3CF"/>
</g>
</svg>
