<svg width="20" height="20" viewBox="0 0 20 20" fill="none" xmlns="http://www.w3.org/2000/svg">
<g id="SVG">
<path id="Vector" fill-rule="evenodd" clip-rule="evenodd" d="M6.73667 2.68074C8.68797 2.46388 10.656 2.44211 12.6117 2.61574L13.2633 2.68074L13.4958 2.70657C14.4033 2.8074 15.0667 3.01657 15.6675 3.39657C16.2661 3.77273 16.7467 4.30991 17.0542 4.94657C17.3342 5.52157 17.4708 6.1324 17.4958 6.91407L17.5 7.18157V10.4941C17.5 11.3499 17.2069 12.1799 16.6693 12.8458C16.1318 13.5118 15.3824 13.9735 14.5458 14.1541L14.3733 14.1874L12.6325 14.4757L10.2492 16.9691L10.1267 17.0816C9.305 17.7391 8.1275 17.6007 7.45583 16.8116C7.0125 16.2907 6.9425 15.6949 7.03083 14.9032L7.055 14.7166L7.08667 14.5049L7.11417 14.3491L6.00417 14.1916C5.51489 14.1227 5.04171 13.9675 4.60667 13.7332L4.39583 13.6116L4.19333 13.4782C3.66962 13.1073 3.24334 12.6153 2.95083 12.0441C2.69007 11.5332 2.53906 10.9734 2.5075 10.4007L2.5 10.1507V7.18157C2.5 6.26824 2.635 5.58574 2.94583 4.94574C3.25833 4.30407 3.72917 3.77907 4.3325 3.39657C4.87333 3.05491 5.465 2.85074 6.23917 2.73991L6.50417 2.70657L6.7375 2.68074H6.73667ZM13.125 3.92324C11.2562 3.71547 9.37131 3.69453 7.49833 3.86074L6.875 3.92324L6.64167 3.94907C5.87917 4.03407 5.4075 4.19657 5 4.45407C4.59818 4.7058 4.27577 5.06606 4.07 5.49324C3.88 5.88324 3.7725 6.31741 3.75333 6.95991L3.75 7.18157V10.1507C3.75 10.6316 3.86167 11.0807 4.0625 11.4732C4.26417 11.8657 4.55583 12.2016 4.91583 12.4566C5.22417 12.6757 5.58333 12.8341 5.97917 12.9182L6.18083 12.9541L7.83083 13.1899C8.11333 13.2299 8.21167 13.2699 8.31 13.3357C8.40917 13.4007 8.52833 13.4916 8.535 13.6574L8.53333 13.6774L8.5225 13.7441L8.38583 14.3616L8.3325 14.6391C8.24 15.1641 8.19333 15.7491 8.4075 16.0007C8.62667 16.2582 8.99083 16.3257 9.27167 16.1566L9.34583 16.1049L11.8442 13.4924L11.9525 13.4082L12.0292 13.3557L12.0933 13.3224L12.16 13.2974L12.1892 13.2891L12.2617 13.2724L14.1667 12.9541C14.7232 12.8612 15.2319 12.5824 15.6095 12.1631C15.9872 11.7439 16.2115 11.209 16.2458 10.6457L16.25 10.4941V7.18157C16.25 6.41407 16.1417 5.92657 15.93 5.49324C15.7242 5.06606 15.4018 4.7058 15 4.45407C14.6333 4.2224 14.2142 4.0674 13.5783 3.9774L13.3575 3.94907L13.125 3.92324ZM12.6667 9.16824L12.7442 9.17241C13.0758 9.20907 13.3333 9.47241 13.3333 9.79407C13.3333 10.1107 13.0825 10.3716 12.7575 10.4132L12.6667 10.4191H7.33333L7.25583 10.4149C6.92417 10.3782 6.66667 10.1149 6.66667 9.79407C6.66667 9.47741 6.9175 9.21574 7.2425 9.17407L7.33333 9.16824H12.6667ZM12.6667 6.25157L12.7442 6.2549C13.0758 6.29157 13.3333 6.5549 13.3333 6.87657C13.3333 7.19324 13.0825 7.45407 12.7575 7.49574L12.6667 7.50157H7.33333L7.25583 7.4974C6.92417 7.46074 6.66667 7.1974 6.66667 6.87657C6.66667 6.5599 6.9175 6.29824 7.2425 6.25657L7.33333 6.25074L12.6667 6.25157Z" fill="#A8B3CF"/>
</g>
</svg>
