<svg width="20" height="20" viewBox="0 0 20 20" fill="none" xmlns="http://www.w3.org/2000/svg">
<g id="SVG">
<path id="Vector" fill-rule="evenodd" clip-rule="evenodd" d="M12.0584 5.18335C12.1642 5.07751 12.3045 5.01315 12.4537 5.00199C12.603 4.99082 12.7513 5.03359 12.8717 5.12252L12.9417 5.18335L17.32 9.55835C17.4259 9.66418 17.4902 9.80447 17.5014 9.95373C17.5126 10.103 17.4698 10.2513 17.3809 10.3717L17.32 10.4417L12.9417 14.8167C12.8299 14.9265 12.6809 14.9904 12.5243 14.9955C12.3676 15.0007 12.2148 14.9468 12.096 14.8446C11.9772 14.7424 11.9011 14.5993 11.8829 14.4436C11.8647 14.2879 11.9056 14.1311 11.9975 14.0042L12.0584 13.9334L15.9942 10L12.0584 6.06669C11.9525 5.96086 11.8881 5.82057 11.877 5.67131C11.8658 5.52205 11.9086 5.37375 11.9975 5.25335L12.0584 5.18335ZM7.94502 14.8167C7.8392 14.9225 7.6989 14.9869 7.54964 14.9981C7.40039 15.0092 7.25208 14.9664 7.13169 14.8775L7.06085 14.8167L2.68335 10.4417C2.57751 10.3359 2.51315 10.1956 2.50199 10.0463C2.49082 9.89705 2.53359 9.74875 2.62252 9.62835L2.68335 9.55835L7.06085 5.18335C7.17238 5.07228 7.32172 5.00738 7.47902 5.00162C7.63632 4.99586 7.79 5.04967 7.90935 5.15229C8.02871 5.25491 8.10495 5.39878 8.12284 5.55517C8.14073 5.71155 8.09895 5.86893 8.00585 5.99585L7.94502 6.06669L4.00919 10L7.94502 13.9334C8.05087 14.0392 8.11523 14.1795 8.12639 14.3287C8.13755 14.478 8.09478 14.6263 8.00585 14.7467L7.94502 14.8167Z" fill="#A8B3CF"/>
</g>
</svg>
