<svg width="20" height="20" viewBox="0 0 20 20" fill="none" xmlns="http://www.w3.org/2000/svg">
<g id="SVG">
<path id="Vector" fill-rule="evenodd" clip-rule="evenodd" d="M10.9999 3.41322C11.5645 2.84879 12.3241 2.52234 13.1221 2.50111C13.9202 2.47987 14.6961 2.76545 15.2899 3.29906L15.4099 3.41322L16.5866 4.58989C17.151 5.15451 17.4774 5.91406 17.4987 6.71214C17.5199 7.51021 17.2343 8.28605 16.7007 8.87989L16.5866 8.99989L13.2341 12.3524C12.6694 12.9168 11.9099 13.2433 11.1118 13.2645C10.3137 13.2857 9.5379 13.0002 8.94406 12.4666L8.82406 12.3524L8.23572 11.7641C8.126 11.6518 8.0626 11.5023 8.05819 11.3454C8.05377 11.1884 8.10864 11.0356 8.21188 10.9173C8.31512 10.7991 8.45913 10.724 8.61521 10.7072C8.7713 10.6904 8.92799 10.733 9.05406 10.8266L9.11739 10.8824L9.70572 11.4699C10.4057 12.1699 11.5232 12.1999 12.2582 11.5574L12.3524 11.4699L15.7041 8.11822C16.4041 7.41822 16.4341 6.30072 15.7916 5.56489L15.7041 5.47156L14.5282 4.29572C14.1929 3.96061 13.743 3.7652 13.2692 3.74896C12.7955 3.73272 12.3332 3.89686 11.9757 4.20822L11.8816 4.29572L10.9999 5.17739C10.8879 5.28841 10.738 5.35292 10.5804 5.35796C10.4228 5.36299 10.2691 5.30817 10.1502 5.20451C10.0314 5.10086 9.95617 4.95606 9.93972 4.79921C9.92327 4.64237 9.9668 4.48512 10.0616 4.35906L10.1174 4.29572L10.9999 3.41322ZM6.76572 7.64739C7.33034 7.08296 8.08989 6.75651 8.88797 6.73527C9.68605 6.71403 10.4619 6.99962 11.0557 7.53322L11.1757 7.64739L11.7641 8.23572C11.8738 8.348 11.9372 8.49749 11.9416 8.65442C11.946 8.81135 11.8911 8.96417 11.7879 9.08244C11.6847 9.20071 11.5407 9.27574 11.3846 9.29256C11.2285 9.30939 11.0718 9.26678 10.9457 9.17322L10.8824 9.11739L10.2941 8.52989C9.95877 8.19478 9.50882 7.99937 9.03505 7.98313C8.56128 7.96689 8.099 8.13102 7.74156 8.44239L7.64739 8.52989L4.29572 11.8816C3.96037 12.2169 3.76482 12.667 3.74857 13.141C3.73233 13.6149 3.89661 14.0774 4.20822 14.4349L4.29572 14.5282L5.47156 15.7041C6.17156 16.4041 7.28906 16.4341 8.02406 15.7916L8.11822 15.7041L8.99989 14.8224C9.11189 14.7114 9.26177 14.6469 9.41939 14.6418C9.57701 14.6368 9.7307 14.6916 9.84955 14.7953C9.9684 14.8989 10.0436 15.0437 10.0601 15.2006C10.0765 15.3574 10.033 15.5147 9.93822 15.6407L9.88239 15.7041L8.99989 16.5866C8.43527 17.151 7.67572 17.4774 6.87765 17.4987C6.07957 17.5199 5.30373 17.2343 4.70989 16.7007L4.58989 16.5866L3.41322 15.4099C2.84879 14.8453 2.52234 14.0857 2.50111 13.2876C2.47987 12.4896 2.76545 11.7137 3.29906 11.1199L3.41322 10.9999L6.76572 7.64739Z" fill="#A8B3CF"/>
</g>
</svg>
