<svg width="76" height="18" viewBox="0 0 76 18" fill="none" xmlns="http://www.w3.org/2000/svg">
<g clip-path="url(#clip0_1155_787)">
<path fill-rule="evenodd" clip-rule="evenodd" d="M6.63601 5.89189V11.7189H9.83701L10.515 13.6619H6.63601C6.12167 13.6608 5.62879 13.4556 5.26575 13.0912C4.90271 12.7268 4.69922 12.2332 4.70001 11.7189V5.89189C4.69948 5.37771 4.90309 4.88436 5.26611 4.52022C5.62912 4.15608 6.12184 3.95095 6.63601 3.94989H9.83701V5.89189H10.515V2.00689C10.5149 1.87942 10.5399 1.75318 10.5886 1.63538C10.6373 1.51758 10.7087 1.41053 10.7988 1.32035C10.8889 1.23017 10.9958 1.15863 11.1136 1.10982C11.2313 1.06101 11.3575 1.03589 11.485 1.03589H12.454V12.6909C12.454 12.8183 12.4289 12.9444 12.3802 13.0621C12.3314 13.1798 12.26 13.2867 12.1699 13.3768C12.0798 13.4669 11.9729 13.5383 11.8552 13.5871C11.7375 13.6358 11.6114 13.6609 11.484 13.6609L10.515 13.6619V5.89189H6.63601ZM16.328 13.6619C15.8137 13.6608 15.3208 13.4556 14.9578 13.0912C14.5947 12.7268 14.3912 12.2332 14.392 11.7189V9.77689C14.3915 9.26271 14.5951 8.76936 14.9581 8.40522C15.3211 8.04108 15.8138 7.83595 16.328 7.83489H19.529V9.77689H20.207V5.89189H14.877V4.92089C14.8767 4.66397 14.9784 4.41745 15.1597 4.23541C15.341 4.05337 15.5871 3.95068 15.844 3.94989H20.207C21.278 3.94989 22.146 4.81989 22.146 5.89189V12.6909C22.146 12.9481 22.0438 13.1949 21.8619 13.3768C21.68 13.5587 21.4333 13.6609 21.176 13.6609H20.207V9.77689L16.328 9.77789V11.7199H19.529L20.207 13.6629H16.328V13.6619ZM24.084 13.6619V4.91989C24.0837 4.6628 24.1856 4.41612 24.3671 4.23406C24.5486 4.05199 24.7949 3.94942 25.052 3.94889H26.02V12.6889C26.0203 12.8163 25.9954 12.9425 25.9469 13.0602C25.8984 13.178 25.8272 13.2851 25.7373 13.3754C25.6474 13.4656 25.5407 13.5373 25.4231 13.5863C25.3055 13.6353 25.1794 13.6606 25.052 13.6609L24.084 13.6619ZM26.02 2.01389C26.02 2.28389 25.927 2.51289 25.742 2.69889C25.6534 2.78985 25.5471 2.86164 25.4296 2.9098C25.3121 2.95797 25.186 2.98148 25.059 2.97889C24.789 2.97889 24.559 2.88489 24.369 2.69889C24.2767 2.61064 24.2037 2.50419 24.1547 2.38629C24.1056 2.26838 24.0815 2.14157 24.084 2.01389C24.084 1.73389 24.179 1.50089 24.369 1.31489C24.559 1.12889 24.789 1.03589 25.059 1.03589C25.329 1.03589 25.556 1.12889 25.742 1.31589C25.8334 1.40722 25.9052 1.51622 25.9529 1.63624C26.0007 1.75625 26.0236 1.88475 26.02 2.01389ZM27.961 13.6619V2.00689C27.9608 1.7498 28.0626 1.50312 28.2441 1.32106C28.4256 1.13899 28.6719 1.03642 28.929 1.03589H29.897V12.6909C29.897 12.9478 29.7951 13.1942 29.6136 13.3761C29.4321 13.5579 29.1859 13.6604 28.929 13.6609L27.961 13.6619ZM34.493 13.6659L31.88 5.44589C31.8065 5.19898 31.8335 4.933 31.9553 4.70595C32.077 4.47891 32.2836 4.30922 32.53 4.23389L33.45 3.94989L35.582 10.9299L37.502 4.63689C37.5381 4.51539 37.5978 4.40223 37.6778 4.30393C37.7578 4.20564 37.8565 4.12416 37.9682 4.0642C38.0798 4.00424 38.2022 3.96697 38.3284 3.95456C38.4545 3.94215 38.5818 3.95484 38.703 3.99189L39.591 4.27589L36.3 15.2009C36.052 16.0169 35.3 16.5749 34.45 16.5749H32.849C32.5921 16.5744 32.3459 16.4719 32.1644 16.2901C31.9829 16.1082 31.881 15.8618 31.881 15.6049V14.6329H33.49C34.023 14.6329 34.491 14.2009 34.493 13.6659Z" fill="white"/>
<path d="M42.75 13.7879V12.4159H41.342V13.7879H42.75ZM46.96 13.8779C47.643 13.8779 48.221 13.7079 48.695 13.3649C49.168 13.0229 49.499 12.5649 49.687 11.9929V13.7879H50.852V4.29688H49.687V8.54187C49.5137 7.98917 49.1656 7.50769 48.695 7.16988C48.221 6.82788 47.643 6.65688 46.961 6.65688C46.338 6.65688 45.783 6.80187 45.297 7.09288C44.81 7.38287 44.428 7.80288 44.151 8.34988C43.874 8.89688 43.735 9.53888 43.735 10.2739C43.735 11.0089 43.874 11.6479 44.151 12.1909C44.428 12.7339 44.811 13.1509 45.297 13.4419C45.783 13.7319 46.336 13.8779 46.96 13.8779ZM47.293 12.8519C46.577 12.8519 46.003 12.6229 45.572 12.1659C45.141 11.7079 44.925 11.0779 44.925 10.2739C44.925 9.46988 45.141 8.83988 45.572 8.38188C46.002 7.92488 46.577 7.69588 47.293 7.69588C47.754 7.69588 48.166 7.80088 48.528 8.00988C48.891 8.21988 49.175 8.52087 49.38 8.91387C49.584 9.30787 49.687 9.76088 49.687 10.2739C49.687 10.7869 49.584 11.2379 49.38 11.6269C49.1874 12.0028 48.8919 12.3163 48.528 12.5309C48.166 12.7449 47.754 12.8519 47.293 12.8519ZM55.818 13.8779C56.407 13.8779 56.936 13.7709 57.405 13.5579C57.875 13.3439 58.256 13.0439 58.551 12.6599C58.845 12.2766 59.0407 11.8272 59.121 11.3509H57.879C57.8056 11.8101 57.555 12.2223 57.181 12.4989C56.801 12.7859 56.33 12.9289 55.767 12.9289C55.144 12.9289 54.617 12.7279 54.186 12.3259C53.755 11.9239 53.526 11.3209 53.501 10.5179H59.121C59.154 10.3379 59.171 10.1239 59.171 9.87588C59.1775 9.31156 59.0388 8.75506 58.768 8.25988C58.4963 7.76969 58.0928 7.36542 57.603 7.09288C57.096 6.80288 56.5 6.65688 55.818 6.65688C55.144 6.65688 54.546 6.80187 54.026 7.09288C53.506 7.38287 53.098 7.80288 52.804 8.34988C52.509 8.89688 52.362 9.53888 52.362 10.2739C52.362 11.0089 52.509 11.6479 52.804 12.1909C53.098 12.7339 53.505 13.1509 54.026 13.4419C54.546 13.7319 55.144 13.8779 55.818 13.8779ZM57.994 9.95288H53.5C53.534 9.18288 53.769 8.59988 54.204 8.20288C54.639 7.80488 55.177 7.60588 55.817 7.60588C56.217 7.60588 56.589 7.69187 56.93 7.86287C57.272 8.03287 57.54 8.29388 57.737 8.64488C57.933 8.99488 58.019 9.43188 57.994 9.95288ZM64.099 13.7879L66.851 6.74688H65.597L63.421 12.5439L61.219 6.74688H59.965L62.717 13.7879H64.099Z" fill="white" fill-opacity="0.64"/>
</g>
<defs>
<clipPath id="clip0_1155_787">
<rect width="72" height="18" fill="white" transform="translate(4)"/>
</clipPath>
</defs>
</svg>
