<svg width="32" height="18" viewBox="0 0 32 18" fill="none" xmlns="http://www.w3.org/2000/svg">
<g clip-path="url(#clip0_1155_783)">
<path d="M26.633 8.68986L23.209 5.25886L24.92 1.82886L30.483 7.40386C31.192 8.11386 31.192 9.26486 30.483 9.97586L23.636 16.8359C22.927 17.5469 21.778 17.5469 21.069 16.8359C20.7288 16.4945 20.5378 16.0323 20.5378 15.5504C20.5378 15.0684 20.7288 14.6062 21.069 14.2649L26.633 8.68986Z" fill="white" fill-opacity="0.64"/>
<path d="M21.07 0.535964C21.2384 0.367006 21.4385 0.232951 21.6589 0.141482C21.8792 0.0500136 22.1154 0.00292969 22.354 0.00292969C22.5926 0.00292969 22.8288 0.0500136 23.0491 0.141482C23.2694 0.232951 23.4696 0.367006 23.638 0.535964L24.921 1.82196L9.94499 16.83C9.23599 17.54 8.08699 17.54 7.37799 16.83L6.09399 15.543L21.07 0.535964ZM14.652 5.25296L12.085 7.82496L8.66099 4.39496L4.38099 8.68296L7.80499 12.113L6.09399 15.543L0.530987 9.96996C0.190486 9.62859 -0.000732422 9.16612 -0.000732422 8.68396C-0.000732422 8.20181 0.190486 7.73933 0.530987 7.39796L7.37799 0.536964C7.54626 0.368025 7.74621 0.233941 7.96638 0.142389C8.18656 0.0508375 8.42262 0.00361662 8.66107 0.00343084C8.89952 0.00324506 9.13566 0.050098 9.35598 0.141307C9.57629 0.232515 9.77645 0.366288 9.94499 0.534964L14.652 5.25296Z" fill="white"/>
</g>
<defs>
<clipPath id="clip0_1155_783">
<rect width="32" height="18" fill="white"/>
</clipPath>
</defs>
</svg>
