<svg width="20" height="20" viewBox="0 0 20 20" fill="none" xmlns="http://www.w3.org/2000/svg">
<g id="SVG">
<path id="Vector" fill-rule="evenodd" clip-rule="evenodd" d="M12.615 4.68665L11.8875 3.80832L11.4075 3.21082C11.2274 2.98237 10.9964 2.79917 10.733 2.67584C10.4695 2.55251 10.1809 2.49245 9.89013 2.50046C9.59935 2.50848 9.31446 2.58434 9.0582 2.722C8.80194 2.85966 8.5814 3.0553 8.41418 3.29332L8.28918 3.47915C7.73334 4.35998 7.47918 5.09582 7.50418 6.16165L7.51168 6.34082L7.48834 6.33248C6.86751 6.13665 6.06668 6.42082 5.43251 7.06415C3.53418 8.99332 3.21668 11.9367 4.60918 14.3808C5.67001 16.27 7.79251 17.4983 9.98918 17.4983C10.0833 17.4983 10.1783 17.4966 10.275 17.4916C12.5417 17.38 14.6933 15.9417 15.6633 13.8908C16.2073 12.7535 16.3782 11.4735 16.1517 10.2333C15.8708 8.72915 15.1442 7.79748 13.7617 6.07332L13.3183 5.52998L12.615 4.68665ZM10.4033 4.00332L10.9033 4.62415L11.6333 5.50582L12.3283 6.33832L12.7642 6.87248C13.8225 8.19332 14.6333 9.06665 14.895 10.4683C15.0715 11.4438 14.9359 12.4502 14.5075 13.3442C13.7392 14.9692 12.0075 16.1266 10.2125 16.215C10.1375 16.2183 10.0625 16.22 9.98918 16.22C8.25334 16.22 6.55751 15.24 5.72001 13.7475C4.60501 11.7908 4.85584 9.47332 6.34334 7.96165C6.87501 7.42165 7.15584 7.42832 7.18751 7.98082L7.19001 8.09082L7.19084 8.56248L7.19834 9.04082L7.20918 9.35832L7.22751 9.67165C7.31251 10.86 7.59418 11.8925 8.52501 12.0483C9.09334 12.1433 9.69751 11.995 10.0692 11.3667C10.315 10.9425 10.3633 10.4417 10.205 9.95832L10.1442 9.79748L10.0692 9.63498L9.97334 9.43832L9.79168 9.07915L9.56251 8.64415L9.28751 8.13248C8.64168 6.94082 8.53084 5.34665 9.45918 4.02832C9.51205 3.95337 9.5817 3.8918 9.66257 3.84852C9.74344 3.80524 9.8333 3.78144 9.92499 3.77901C10.0167 3.77658 10.1077 3.7956 10.1907 3.83454C10.2738 3.87348 10.3466 3.93127 10.4033 4.00332Z" fill="#A8B3CF"/>
</g>
</svg>
