<svg width="20" height="20" viewBox="0 0 20 20" fill="none" xmlns="http://www.w3.org/2000/svg">
<g id="SVG">
<path id="Vector" fill-rule="evenodd" clip-rule="evenodd" d="M10 2.5C10.4892 2.49982 10.9678 2.64319 11.3763 2.91234C11.7848 3.18148 12.1054 3.56458 12.2983 4.01417L12.3542 4.15667L12.3833 4.245L12.4167 4.22833C12.8335 4.0203 13.3001 3.93271 13.764 3.9754C14.2279 4.01809 14.6707 4.18938 15.0425 4.47L15.1833 4.58417L15.3033 4.69667C15.6546 5.04788 15.8933 5.49572 15.989 5.98312C16.0847 6.47051 16.0331 6.97537 15.8408 7.43333L15.7725 7.58333L15.7533 7.61583L15.8433 7.64583C16.2775 7.80173 16.6601 8.0746 16.949 8.43431C17.2378 8.79402 17.4216 9.22657 17.48 9.68417L17.4958 9.85333L17.5 10C17.5002 10.4892 17.3568 10.9678 17.0877 11.3763C16.8185 11.7848 16.4354 12.1054 15.9858 12.2983L15.8433 12.3542L15.7542 12.3833L15.7717 12.4167C15.9797 12.8335 16.0673 13.3001 16.0246 13.764C15.9819 14.2279 15.8106 14.6707 15.53 15.0425L15.4158 15.1833L15.3033 15.3033C14.9521 15.6546 14.5043 15.8933 14.0169 15.989C13.5295 16.0847 13.0246 16.0331 12.5667 15.8408L12.4167 15.7725L12.3833 15.7533L12.3542 15.8433C12.1983 16.2775 11.9254 16.6601 11.5657 16.949C11.206 17.2378 10.7734 17.4216 10.3158 17.48L10.1467 17.4958L10 17.5C9.51077 17.5002 9.03225 17.3568 8.62371 17.0877C8.21517 16.8185 7.89458 16.4354 7.70167 15.9858L7.64583 15.8425L7.61583 15.7542L7.58333 15.7717C7.16651 15.9797 6.69991 16.0673 6.23602 16.0246C5.77213 15.9819 5.32935 15.8106 4.9575 15.53L4.81667 15.4167L4.69667 15.3042C4.34543 14.953 4.10673 14.5051 4.01101 14.0177C3.91528 13.5303 3.96686 13.0255 4.15917 12.5675L4.2275 12.4175L4.24583 12.3842L4.15667 12.355C3.72249 12.1991 3.33986 11.9262 3.05103 11.5665C2.7622 11.2068 2.57843 10.7743 2.52 10.3167L2.50417 10.1475L2.5 10C2.49982 9.51077 2.64319 9.03225 2.91234 8.62371C3.18148 8.21517 3.56458 7.89458 4.01417 7.70167L4.1575 7.64583L4.245 7.61583L4.22833 7.58333C4.0203 7.16651 3.93271 6.69991 3.9754 6.23602C4.01809 5.77213 4.18938 5.32935 4.47 4.9575L4.58333 4.81667L4.69583 4.69667C5.04704 4.34543 5.49489 4.10673 5.98228 4.01101C6.46968 3.91528 6.97453 3.96686 7.4325 4.15917L7.5825 4.2275L7.615 4.24583L7.645 4.15667C7.80089 3.72249 8.07377 3.33986 8.43348 3.05103C8.79319 2.7622 9.22573 2.57843 9.68333 2.52L9.8525 2.50417L10 2.5ZM10 3.75C9.68926 3.75002 9.38967 3.86577 9.15965 4.07468C8.92963 4.2836 8.78566 4.5707 8.75583 4.88L8.75 5V6.02417C8.59333 6.07333 8.44083 6.13167 8.29167 6.19833L8.07333 6.30417L7.34833 5.58083C7.12158 5.35512 6.81692 5.22495 6.49707 5.21712C6.17723 5.20929 5.86656 5.3244 5.62903 5.53875C5.39151 5.7531 5.24522 6.05036 5.22028 6.36933C5.19535 6.68829 5.29367 7.00468 5.495 7.25333L5.58083 7.34833L6.30417 8.07333C6.22917 8.21667 6.1625 8.365 6.10417 8.51833L6.02417 8.75083L5 8.75C4.67899 8.75016 4.37034 8.87381 4.13801 9.09534C3.90568 9.31687 3.76749 9.61929 3.75206 9.93993C3.73664 10.2606 3.84516 10.5749 4.05515 10.8177C4.26513 11.0605 4.56048 11.2132 4.88 11.2442L5 11.25H6.02417C6.07417 11.4067 6.13167 11.56 6.19833 11.7083L6.30417 11.9267L5.58083 12.6517C5.40624 12.8265 5.28737 13.0491 5.23922 13.2914C5.19108 13.5338 5.21584 13.7849 5.31036 14.0132C5.40487 14.2415 5.56492 14.4366 5.77028 14.574C5.97564 14.7114 6.2171 14.7848 6.46417 14.785L6.58417 14.78C6.82333 14.7567 7.05667 14.665 7.25333 14.505L7.34833 14.4192L8.07333 13.6958C8.21667 13.7708 8.365 13.8375 8.51833 13.8958L8.75083 13.9758L8.75 15C8.75001 15.3107 8.86577 15.6103 9.07468 15.8403C9.2836 16.0704 9.5707 16.2143 9.88 16.2442L10 16.25L10.12 16.2442C10.4089 16.2165 10.6791 16.0892 10.8843 15.8841C11.0896 15.679 11.2171 15.4088 11.245 15.12L11.25 15V13.9758C11.4067 13.9258 11.56 13.8683 11.7083 13.8017L11.9267 13.6958L12.6517 14.4192C12.8958 14.6633 13.2158 14.7858 13.535 14.7858L13.655 14.78C13.8802 14.7584 14.0952 14.6761 14.2773 14.5419C14.4593 14.4076 14.6016 14.2265 14.6888 14.0178C14.776 13.8091 14.805 13.5807 14.7727 13.3568C14.7403 13.133 14.6478 12.9221 14.505 12.7467L14.4192 12.6517L13.6958 11.9267C13.7708 11.7833 13.8375 11.635 13.8958 11.4825L13.9758 11.25H15L15.12 11.2442C15.4292 11.2142 15.7161 11.0702 15.9249 10.8402C16.1337 10.6101 16.2494 10.3106 16.2494 10C16.2494 9.68936 16.1337 9.38985 15.9249 9.15984C15.7161 8.92984 15.4292 8.78581 15.12 8.75583L15 8.75H13.9758C13.9269 8.59391 13.8687 8.44087 13.8017 8.29167L13.6958 8.07333L14.4192 7.34833C14.6449 7.12158 14.7751 6.81692 14.7829 6.49707C14.7907 6.17723 14.6756 5.86656 14.4613 5.62903C14.2469 5.39151 13.9496 5.24522 13.6307 5.22028C13.3117 5.19535 12.9953 5.29367 12.7467 5.495L12.6517 5.58083L11.9267 6.30417C11.7833 6.22917 11.635 6.1625 11.4825 6.10417L11.25 6.025V5C11.25 4.66848 11.1183 4.35054 10.8839 4.11612C10.6495 3.8817 10.3315 3.75 10 3.75ZM10 7.5C10.663 7.5 11.2989 7.76339 11.7678 8.23223C12.2366 8.70107 12.5 9.33696 12.5 10C12.5 10.663 12.2366 11.2989 11.7678 11.7678C11.2989 12.2366 10.663 12.5 10 12.5C9.33696 12.5 8.70107 12.2366 8.23223 11.7678C7.76339 11.2989 7.5 10.663 7.5 10C7.5 9.33696 7.76339 8.70107 8.23223 8.23223C8.70107 7.76339 9.33696 7.5 10 7.5ZM10 8.75C9.66848 8.75 9.35054 8.8817 9.11612 9.11612C8.8817 9.35054 8.75 9.66848 8.75 10C8.75 10.3315 8.8817 10.6495 9.11612 10.8839C9.35054 11.1183 9.66848 11.25 10 11.25C10.3315 11.25 10.6495 11.1183 10.8839 10.8839C11.1183 10.6495 11.25 10.3315 11.25 10C11.25 9.66848 11.1183 9.35054 10.8839 9.11612C10.6495 8.8817 10.3315 8.75 10 8.75Z" fill="#A8B3CF"/>
</g>
</svg>
