<svg width="20" height="20" viewBox="0 0 20 20" fill="none" xmlns="http://www.w3.org/2000/svg">
<g id="SVG">
<path id="Vector" fill-rule="evenodd" clip-rule="evenodd" d="M16.4466 3.55344C17.6324 4.73927 17.1049 7.3101 15.3366 10.0001C17.1041 12.6909 17.6324 15.2609 16.4466 16.4468C15.2607 17.6326 12.6907 17.1051 10.0007 15.3376C7.3099 17.1043 4.73907 17.6326 3.55323 16.4468C2.3674 15.2609 2.8949 12.6909 4.6624 10.0009C2.89573 7.3101 2.3674 4.73927 3.55323 3.55344C4.73907 2.3676 7.3099 2.8951 9.9999 4.66344C12.6907 2.89594 15.2607 2.3676 16.4466 3.55344ZM14.5549 11.0909L14.6682 10.9443C14.1344 11.6448 13.5536 12.3082 12.9299 12.9301C12.3299 13.5301 11.7116 14.0751 11.0899 14.5568C13.1449 15.8143 14.9374 16.1984 15.5674 15.5676C16.1982 14.9376 15.8141 13.1451 14.5549 11.0909ZM5.4449 11.0918L5.39657 11.1709C4.17657 13.1918 3.8099 14.9459 4.4324 15.5676C5.0624 16.1984 6.85407 15.8143 8.9074 14.5559C8.26177 14.0529 7.64809 13.5102 7.0699 12.9309C6.49029 12.3525 5.94755 11.7382 5.4449 11.0918ZM9.9999 6.18094L9.73573 6.37927C9.13907 6.83677 8.53573 7.36094 7.94907 7.94844C7.27407 8.62344 6.6824 9.3176 6.18073 10.0001C6.71799 10.7273 7.30909 11.4131 7.94907 12.0518C8.62407 12.7268 9.3174 13.3168 9.9999 13.8193C10.7271 13.2823 11.4129 12.6914 12.0516 12.0518C12.7257 11.3768 13.3166 10.6834 13.8191 10.0001C13.2823 9.2728 12.6914 8.58697 12.0516 7.94844C11.413 7.30867 10.7271 6.71783 9.9999 6.18094ZM12.6632 4.62594L12.3191 4.7801C11.9266 4.96344 11.5141 5.18594 11.0916 5.4451L10.9441 5.33177C11.6149 5.8401 12.2832 6.4226 12.9299 7.0701C13.5299 7.6701 14.0741 8.2876 14.5549 8.90927C14.8141 8.48594 15.0366 8.07427 15.2207 7.68094L15.3741 7.33677C15.9466 5.98094 16.0299 4.8951 15.5674 4.4326C15.1057 3.9701 14.0191 4.05344 12.6632 4.62594ZM4.43323 4.43344C3.97073 4.8951 4.05407 5.98177 4.62657 7.3376L4.78073 7.68177C4.96407 8.07427 5.18573 8.48594 5.4449 8.90844C5.94792 8.26282 6.49064 7.64913 7.0699 7.07094C7.6699 6.47094 8.28823 5.9276 8.90907 5.44594C8.51271 5.2014 8.1029 4.97938 7.68157 4.78094L7.3374 4.62677C5.98157 4.05427 4.89573 3.97094 4.43323 4.43344Z" fill="#A8B3CF"/>
</g>
</svg>
