<svg width="20" height="20" viewBox="0 0 20 20" fill="none" xmlns="http://www.w3.org/2000/svg">
<g id="SVG">
<path id="Vector" fill-rule="evenodd" clip-rule="evenodd" d="M8.33337 2.5C9.35677 2.49982 10.3622 2.76889 11.2487 3.28018C12.1352 3.79147 12.8717 4.52699 13.384 5.4129C13.8964 6.2988 14.1667 7.30391 14.1677 8.32731C14.1688 9.35071 13.9006 10.3564 13.39 11.2433C13.7011 11.2165 14.0143 11.2521 14.3114 11.348C14.6084 11.4439 14.8834 11.5981 15.12 11.8017L15.2509 11.9242L16.8109 13.4833C17.2472 13.9136 17.4983 14.4972 17.5109 15.1099C17.5235 15.7225 17.2965 16.3159 16.8783 16.7638C16.4601 17.2117 15.8836 17.4787 15.2715 17.508C14.6594 17.5374 14.06 17.3267 13.6009 16.9208L13.4842 16.8108L11.9242 15.2508C11.6817 15.009 11.495 14.7171 11.3772 14.3955C11.2594 14.0739 11.2135 13.7304 11.2425 13.3892C10.4673 13.8353 9.59987 14.0972 8.70727 14.1546C7.81467 14.212 6.92082 14.0634 6.09483 13.7203C5.26883 13.3771 4.53281 12.8486 3.94367 12.1756C3.35452 11.5026 2.92803 10.7031 2.69717 9.83897C2.46631 8.97483 2.43725 8.06918 2.61225 7.19202C2.78725 6.31487 3.16162 5.4897 3.70642 4.78031C4.25121 4.07093 4.95184 3.49633 5.75414 3.10093C6.55645 2.70553 7.43893 2.49992 8.33337 2.5ZM14.3667 12.8083C14.1671 12.6103 13.8993 12.496 13.6182 12.4889C13.337 12.4818 13.0638 12.5824 12.8544 12.77C12.645 12.9577 12.5152 13.2184 12.4916 13.4986C12.4681 13.7788 12.5524 14.0574 12.7275 14.2775L12.8075 14.3675L14.3675 15.9267C14.5684 16.1283 14.8275 16.235 15.0909 16.2483H15.2034L15.3159 16.2367C15.507 16.207 15.687 16.1275 15.8378 16.0063C15.9885 15.8851 16.1047 15.7264 16.1748 15.546C16.2449 15.3657 16.2663 15.1702 16.2369 14.979C16.2076 14.7878 16.1285 14.6076 16.0075 14.4567L15.9267 14.3675L14.3675 12.8075L14.3667 12.8083ZM8.33337 3.75C7.13208 3.74747 5.97781 4.21667 5.11898 5.05664C4.26016 5.8966 3.76544 7.04017 3.7413 8.24122C3.71716 9.44228 4.16553 10.6048 4.98991 11.4786C5.81429 12.3524 6.94878 12.8676 8.14921 12.9133L8.33337 12.9167L8.51754 12.9133C9.71797 12.8676 10.8525 12.3524 11.6768 11.4786C12.5012 10.6048 12.9496 9.44228 12.9254 8.24122C12.9013 7.04017 12.4066 5.8966 11.5478 5.05664C10.6889 4.21667 9.53467 3.74747 8.33337 3.75Z" fill="#A8B3CF"/>
</g>
</svg>
